<svg xmlns="http://www.w3.org/2000/svg" xmlns:xlink="http://www.w3.org/1999/xlink" version="1.1" data-diagram-type="ACTIVITY" style="width:739px;height:1918px;background:#FFFFFF;" width="739px" height="1918px" viewBox="0 0 739 1918" zoomAndPan="magnify" preserveAspectRatio="none" contentStyleType="text/css"><?plantuml 1.2026.7beta3?><defs/><g><g class="title" data-source-line="1"><text x="150.3657" y="32.9951" fill="#000000" font-size="14" lengthAdjust="spacing" textLength="437.1514" font-weight="700" font-family="sans-serif">Diagrama de Atividades - Fluxo Geral da Hamburgueria</text></g><ellipse cx="418.1697" cy="62.2969" rx="10" ry="10" fill="#222222" style="stroke:#222222;stroke-width:1;"/><rect x="319.3533" y="92.2969" width="197.6328" height="33.9688" fill="#F1F1F1" style="stroke:#181818;stroke-width:0.5;" rx="12.5" ry="12.5"/><text x="329.3533" y="113.4355" fill="#000000" font-size="12" lengthAdjust="spacing" textLength="177.6328" font-family="sans-serif">Cliente faz o pedido em texto</text><rect x="283.6072" y="136.2656" width="269.125" height="352.1094" fill="none" style="stroke:#000000;stroke-width:1.5;"/><path d="M441.9675,136.2656 L441.9675,145.5625 L431.9675,155.5625 L283.6072,155.5625" style="stroke:#000000;stroke-width:1.5;" fill="none"/><text x="286.6072" y="150.2607" fill="#000000" font-size="14" lengthAdjust="spacing" textLength="148.3604" font-family="sans-serif">Montagem do Pedido</text><rect x="326.3494" y="172.5625" width="183.6406" height="33.9688" fill="#F1F1F1" style="stroke:#181818;stroke-width:0.5;" rx="12.5" ry="12.5"/><text x="336.3494" y="193.7012" fill="#000000" font-size="12" lengthAdjust="spacing" textLength="163.6406" font-family="sans-serif">Interpretar texto do pedido</text><rect x="293.6072" y="226.5313" width="249.125" height="33.9688" fill="#F1F1F1" style="stroke:#181818;stroke-width:0.5;" rx="12.5" ry="12.5"/><text x="303.6072" y="247.6699" fill="#000000" font-size="12" lengthAdjust="spacing" textLength="229.125" font-family="sans-serif">Identificar tipo, adicionais e remocoes</text><rect x="322.2302" y="280.5" width="191.8789" height="33.9688" fill="#F1F1F1" style="stroke:#181818;stroke-width:0.5;" rx="12.5" ry="12.5"/><text x="332.2302" y="301.6387" fill="#000000" font-size="12" lengthAdjust="spacing" textLength="171.8789" font-family="sans-serif">Criar lanche base via fabrica</text><rect x="324.4099" y="334.4688" width="187.5195" height="33.9688" fill="#F1F1F1" style="stroke:#181818;stroke-width:0.5;" rx="12.5" ry="12.5"/><text x="334.4099" y="355.6074" fill="#000000" font-size="12" lengthAdjust="spacing" textLength="167.5195" font-family="sans-serif">Aplicar adicionais ao lanche</text><rect x="315.6296" y="388.4375" width="205.0801" height="33.9688" fill="#F1F1F1" style="stroke:#181818;stroke-width:0.5;" rx="12.5" ry="12.5"/><text x="325.6296" y="409.5762" fill="#000000" font-size="12" lengthAdjust="spacing" textLength="185.0801" font-family="sans-serif">Montar ficha tecnica do lanche</text><rect x="312.7087" y="442.4063" width="210.9219" height="33.9688" fill="#F1F1F1" style="stroke:#181818;stroke-width:0.5;" rx="12.5" ry="12.5"/><text x="322.7087" y="463.5449" fill="#000000" font-size="12" lengthAdjust="spacing" textLength="190.9219" font-family="sans-serif">Criar pedido com lanche e ficha</text><rect x="16" y="498.375" width="703.8828" height="207.2656" fill="none" style="stroke:#000000;stroke-width:1.5;"/><path d="M94.2432,498.375 L94.2432,507.6719 L84.2432,517.6719 L16,517.6719" style="stroke:#000000;stroke-width:1.5;" fill="none"/><text x="19" y="512.3701" fill="#000000" font-size="14" lengthAdjust="spacing" textLength="68.2432" font-family="sans-serif">Validacao</text><polygon points="339.467,534.6719,496.8723,534.6719,508.8723,546.6719,496.8723,558.6719,339.467,558.6719,327.467,546.6719,339.467,534.6719" fill="#F1F1F1" style="stroke:#181818;stroke-width:0.5;stroke-linejoin:miter;stroke-miterlimit:10;"/><text x="339.467" y="550.48" fill="#000000" font-size="11" lengthAdjust="spacing" textLength="157.4053" font-family="sans-serif">Tipo disponivel em estoque?</text><text x="307.9646" y="544.0776" fill="#000000" font-size="11" lengthAdjust="spacing" textLength="19.5024" font-family="sans-serif">sim</text><text x="508.8723" y="544.0776" fill="#000000" font-size="11" lengthAdjust="spacing" textLength="20.4424" font-family="sans-serif">nao</text><polygon points="175.53,568.6719,304.7209,568.6719,316.7209,580.6719,304.7209,592.6719,175.53,592.6719,163.53,580.6719,175.53,568.6719" fill="#F1F1F1" style="stroke:#181818;stroke-width:0.5;stroke-linejoin:miter;stroke-miterlimit:10;"/><text x="175.53" y="584.48" fill="#000000" font-size="11" lengthAdjust="spacing" textLength="129.1909" font-family="sans-serif">Valor do pedido valido?</text><text x="144.0276" y="578.0776" fill="#000000" font-size="11" lengthAdjust="spacing" textLength="19.5024" font-family="sans-serif">sim</text><text x="316.7209" y="578.0776" fill="#000000" font-size="11" lengthAdjust="spacing" textLength="20.4424" font-family="sans-serif">nao</text><rect x="28" y="602.6719" width="200.9785" height="33.9688" fill="#F1F1F1" style="stroke:#181818;stroke-width:0.5;" rx="12.5" ry="12.5"/><text x="38" y="623.8105" fill="#000000" font-size="12" lengthAdjust="spacing" textLength="180.9785" font-family="sans-serif">Pedido aprovado na validacao</text><rect x="248.9785" y="602.6719" width="205.5664" height="33.9688" fill="#F1F1F1" style="stroke:#181818;stroke-width:0.5;" rx="12.5" ry="12.5"/><text x="258.9785" y="623.8105" fill="#000000" font-size="12" lengthAdjust="spacing" textLength="185.5664" font-family="sans-serif">Rejeitar pedido (valor invalido)</text><ellipse cx="351.7617" cy="682.6406" rx="11" ry="11" fill="none" style="stroke:#222222;stroke-width:1;"/><ellipse cx="351.7617" cy="682.6406" rx="6" ry="6" fill="#222222" style="stroke:#222222;stroke-width:1;"/><rect x="484.5449" y="568.6719" width="223.3379" height="33.9688" fill="#F1F1F1" style="stroke:#181818;stroke-width:0.5;" rx="12.5" ry="12.5"/><text x="494.5449" y="589.8105" fill="#000000" font-size="12" lengthAdjust="spacing" textLength="203.3379" font-family="sans-serif">Rejeitar pedido (tipo indisponivel)</text><ellipse cx="596.2139" cy="648.6406" rx="11" ry="11" fill="none" style="stroke:#222222;stroke-width:1;"/><ellipse cx="596.2139" cy="648.6406" rx="6" ry="6" fill="#222222" style="stroke:#222222;stroke-width:1;"/><rect x="194.3264" y="715.6406" width="419.7988" height="254.2031" fill="none" style="stroke:#000000;stroke-width:1.5;"/><path d="M270.2043,715.6406 L270.2043,724.9375 L260.2043,734.9375 L194.3264,734.9375" style="stroke:#000000;stroke-width:1.5;" fill="none"/><text x="197.3264" y="729.6357" fill="#000000" font-size="14" lengthAdjust="spacing" textLength="65.8779" font-family="sans-serif">Desconto</text><polygon points="348.939,751.9375,487.4004,751.9375,499.4004,763.9375,487.4004,775.9375,348.939,775.9375,336.939,763.9375,348.939,751.9375" fill="#F1F1F1" style="stroke:#181818;stroke-width:0.5;stroke-linejoin:miter;stroke-miterlimit:10;"/><text x="348.939" y="767.7456" fill="#000000" font-size="11" lengthAdjust="spacing" textLength="138.4614" font-family="sans-serif">Cliente informou cupom?</text><text x="317.4365" y="761.3433" fill="#000000" font-size="11" lengthAdjust="spacing" textLength="19.5024" font-family="sans-serif">sim</text><text x="499.4004" y="761.3433" fill="#000000" font-size="11" lengthAdjust="spacing" textLength="20.4424" font-family="sans-serif">nao</text><rect x="222.1223" y="785.9375" width="192.1953" height="33.9688" fill="#F1F1F1" style="stroke:#181818;stroke-width:0.5;" rx="12.5" ry="12.5"/><text x="232.1223" y="807.0762" fill="#000000" font-size="12" lengthAdjust="spacing" textLength="172.1953" font-family="sans-serif">Interpretar codigo do cupom</text><rect x="214.3264" y="839.9063" width="207.7871" height="33.9688" fill="#F1F1F1" style="stroke:#181818;stroke-width:0.5;" rx="12.5" ry="12.5"/><text x="224.3264" y="861.0449" fill="#000000" font-size="12" lengthAdjust="spacing" textLength="187.7871" font-family="sans-serif">Selecionar politica de desconto</text><rect x="442.1135" y="785.9375" width="152.0117" height="33.9688" fill="#F1F1F1" style="stroke:#181818;stroke-width:0.5;" rx="12.5" ry="12.5"/><text x="452.1135" y="807.0762" fill="#000000" font-size="12" lengthAdjust="spacing" textLength="132.0117" font-family="sans-serif">Usar desconto padrao</text><polygon points="418.1697,879.875,430.1697,891.875,418.1697,903.875,406.1697,891.875,418.1697,879.875" fill="#F1F1F1" style="stroke:#181818;stroke-width:0.5;stroke-linejoin:miter;stroke-miterlimit:10;"/><rect x="324.0466" y="923.875" width="188.2461" height="33.9688" fill="#F1F1F1" style="stroke:#181818;stroke-width:0.5;" rx="12.5" ry="12.5"/><text x="334.0466" y="945.0137" fill="#000000" font-size="12" lengthAdjust="spacing" textLength="168.2461" font-family="sans-serif">Calcular total com desconto</text><rect x="176.0349" y="979.8438" width="472.5098" height="396.1406" fill="none" style="stroke:#000000;stroke-width:1.5;"/><path d="M252.0291,979.8438 L252.0291,989.1406 L242.0291,999.1406 L176.0349,999.1406" style="stroke:#000000;stroke-width:1.5;" fill="none"/><text x="179.0349" y="993.8389" fill="#000000" font-size="14" lengthAdjust="spacing" textLength="65.9941" font-family="sans-serif">Checkout</text><polygon points="372.2979,1016.1406,464.0415,1016.1406,476.0415,1028.1406,464.0415,1040.1406,372.2979,1040.1406,360.2979,1028.1406,372.2979,1016.1406" fill="#F1F1F1" style="stroke:#181818;stroke-width:0.5;stroke-linejoin:miter;stroke-miterlimit:10;"/><text x="372.2979" y="1031.9487" fill="#000000" font-size="11" lengthAdjust="spacing" textLength="91.7437" font-family="sans-serif">Canal de venda?</text><text x="323.436" y="1025.5464" fill="#000000" font-size="11" lengthAdjust="spacing" textLength="36.8618" font-family="sans-serif">Balcao</text><text x="476.0415" y="1025.5464" fill="#000000" font-size="11" lengthAdjust="spacing" textLength="45.6597" font-family="sans-serif">Delivery</text><rect x="216.0798" y="1050.1406" width="187.9473" height="33.9688" fill="#F1F1F1" style="stroke:#181818;stroke-width:0.5;" rx="12.5" ry="12.5"/><text x="226.0798" y="1071.2793" fill="#000000" font-size="12" lengthAdjust="spacing" textLength="167.9473" font-family="sans-serif">Nao aplicar taxa de entrega</text><rect x="445.6277" y="1050.1406" width="161.3164" height="33.9688" fill="#F1F1F1" style="stroke:#181818;stroke-width:0.5;" rx="12.5" ry="12.5"/><text x="455.6277" y="1071.2793" fill="#000000" font-size="12" lengthAdjust="spacing" textLength="141.3164" font-family="sans-serif">Aplicar taxa de entrega</text><rect x="424.0271" y="1104.1094" width="204.5176" height="33.9688" fill="#F1F1F1" style="stroke:#181818;stroke-width:0.5;" rx="12.5" ry="12.5"/><text x="434.0271" y="1125.248" fill="#000000" font-size="12" lengthAdjust="spacing" textLength="184.5176" font-family="sans-serif">Registrar endereco de entrega</text><polygon points="418.1697,1144.0781,430.1697,1156.0781,418.1697,1168.0781,406.1697,1156.0781,418.1697,1144.0781" fill="#F1F1F1" style="stroke:#181818;stroke-width:0.5;stroke-linejoin:miter;stroke-miterlimit:10;"/><rect x="342.7878" y="1188.0781" width="150.7637" height="33.9688" fill="#F1F1F1" style="stroke:#181818;stroke-width:0.5;" rx="12.5" ry="12.5"/><text x="352.7878" y="1209.2168" fill="#000000" font-size="12" lengthAdjust="spacing" textLength="130.7637" font-family="sans-serif">Processar pagamento</text><polygon points="356.2356,1242.0469,480.1038,1242.0469,492.1038,1254.0469,480.1038,1266.0469,356.2356,1266.0469,344.2356,1254.0469,356.2356,1242.0469" fill="#F1F1F1" style="stroke:#181818;stroke-width:0.5;stroke-linejoin:miter;stroke-miterlimit:10;"/><text x="356.2356" y="1257.855" fill="#000000" font-size="11" lengthAdjust="spacing" textLength="123.8682" font-family="sans-serif">Pagamento aprovado?</text><text x="324.7332" y="1251.4526" fill="#000000" font-size="11" lengthAdjust="spacing" textLength="19.5024" font-family="sans-serif">sim</text><text x="492.1038" y="1251.4526" fill="#000000" font-size="11" lengthAdjust="spacing" textLength="20.4424" font-family="sans-serif">nao</text><rect x="250.6677" y="1276.0469" width="124.5195" height="33.9688" fill="#F1F1F1" style="stroke:#181818;stroke-width:0.5;" rx="12.5" ry="12.5"/><text x="260.6677" y="1297.1855" fill="#000000" font-size="12" lengthAdjust="spacing" textLength="104.5195" font-family="sans-serif">Confirmar pedido</text><rect x="196.0349" y="1330.0156" width="233.7852" height="33.9688" fill="#F1F1F1" style="stroke:#181818;stroke-width:0.5;" rx="12.5" ry="12.5"/><text x="206.0349" y="1351.1543" fill="#000000" font-size="12" lengthAdjust="spacing" textLength="213.7852" font-family="sans-serif">Atualizar estado para "Em preparo"</text><rect x="449.8201" y="1276.0469" width="147.1836" height="33.9688" fill="#F1F1F1" style="stroke:#181818;stroke-width:0.5;" rx="12.5" ry="12.5"/><text x="459.8201" y="1297.1855" fill="#000000" font-size="12" lengthAdjust="spacing" textLength="127.1836" font-family="sans-serif">Pagamento recusado</text><ellipse cx="523.4119" cy="1341.0156" rx="11" ry="11" fill="none" style="stroke:#222222;stroke-width:1;"/><ellipse cx="523.4119" cy="1341.0156" rx="6" ry="6" fill="#222222" style="stroke:#222222;stroke-width:1;"/><rect x="224.6194" y="1385.9844" width="392.6934" height="416.1094" fill="none" style="stroke:#000000;stroke-width:1.5;"/><path d="M361.7747,1385.9844 L361.7747,1395.2813 L351.7747,1405.2813 L224.6194,1405.2813" style="stroke:#000000;stroke-width:1.5;" fill="none"/><text x="227.6194" y="1399.9795" fill="#000000" font-size="14" lengthAdjust="spacing" textLength="127.1553" font-family="sans-serif">Preparo e Entrega</text><rect x="334.4177" y="1422.2813" width="167.5039" height="33.9688" fill="#F1F1F1" style="stroke:#181818;stroke-width:0.5;" rx="12.5" ry="12.5"/><text x="344.4177" y="1443.4199" fill="#000000" font-size="12" lengthAdjust="spacing" textLength="147.5039" font-family="sans-serif">Notificar cozinha e caixa</text><rect x="325.573" y="1476.25" width="185.1934" height="33.9688" fill="#F1F1F1" style="stroke:#181818;stroke-width:0.5;" rx="12.5" ry="12.5"/><text x="335.573" y="1497.3887" fill="#000000" font-size="12" lengthAdjust="spacing" textLength="165.1934" font-family="sans-serif">Preparar pedido na cozinha</text><rect x="316.8279" y="1530.2188" width="202.6836" height="33.9688" fill="#F1F1F1" style="stroke:#181818;stroke-width:0.5;" rx="12.5" ry="12.5"/><text x="326.8279" y="1551.3574" fill="#000000" font-size="12" lengthAdjust="spacing" textLength="182.6836" font-family="sans-serif">Atualizar estado para "Pronto"</text><rect x="332.8328" y="1584.1875" width="170.6738" height="33.9688" fill="#F1F1F1" style="stroke:#181818;stroke-width:0.5;" rx="12.5" ry="12.5"/><text x="342.8328" y="1605.3262" fill="#000000" font-size="12" lengthAdjust="spacing" textLength="150.6738" font-family="sans-serif">Chamar cliente no painel</text><polygon points="372.2979,1638.1563,464.0415,1638.1563,476.0415,1650.1563,464.0415,1662.1563,372.2979,1662.1563,360.2979,1650.1563,372.2979,1638.1563" fill="#F1F1F1" style="stroke:#181818;stroke-width:0.5;stroke-linejoin:miter;stroke-miterlimit:10;"/><text x="372.2979" y="1653.9644" fill="#000000" font-size="11" lengthAdjust="spacing" textLength="91.7437" font-family="sans-serif">Canal de venda?</text><text x="323.436" y="1647.562" fill="#000000" font-size="11" lengthAdjust="spacing" textLength="36.8618" font-family="sans-serif">Balcao</text><text x="476.0415" y="1647.562" fill="#000000" font-size="11" lengthAdjust="spacing" textLength="45.6597" font-family="sans-serif">Delivery</text><rect x="244.6194" y="1672.1563" width="160.7539" height="33.9688" fill="#F1F1F1" style="stroke:#181818;stroke-width:0.5;" rx="12.5" ry="12.5"/><text x="254.6194" y="1693.2949" fill="#000000" font-size="12" lengthAdjust="spacing" textLength="140.7539" font-family="sans-serif">Cliente retira no balcao</text><rect x="425.3733" y="1672.1563" width="171.9395" height="33.9688" fill="#F1F1F1" style="stroke:#181818;stroke-width:0.5;" rx="12.5" ry="12.5"/><text x="435.3733" y="1693.2949" fill="#000000" font-size="12" lengthAdjust="spacing" textLength="151.9395" font-family="sans-serif">Entregador leva o pedido</text><polygon points="418.1697,1712.125,430.1697,1724.125,418.1697,1736.125,406.1697,1724.125,418.1697,1712.125" fill="#F1F1F1" style="stroke:#181818;stroke-width:0.5;stroke-linejoin:miter;stroke-miterlimit:10;"/><rect x="309.0027" y="1756.125" width="218.334" height="33.9688" fill="#F1F1F1" style="stroke:#181818;stroke-width:0.5;" rx="12.5" ry="12.5"/><text x="319.0027" y="1777.2637" fill="#000000" font-size="12" lengthAdjust="spacing" textLength="198.334" font-family="sans-serif">Atualizar estado para "Entregue"</text><rect x="357.3103" y="1822.0938" width="121.7188" height="33.9688" fill="#F1F1F1" style="stroke:#181818;stroke-width:0.5;" rx="12.5" ry="12.5"/><text x="367.3103" y="1843.2324" fill="#000000" font-size="12" lengthAdjust="spacing" textLength="101.7188" font-family="sans-serif">Pedido concluido</text><ellipse cx="418.1697" cy="1887.0625" rx="11" ry="11" fill="none" style="stroke:#222222;stroke-width:1;"/><ellipse cx="418.1697" cy="1887.0625" rx="6" ry="6" fill="#222222" style="stroke:#222222;stroke-width:1;"/><line x1="418.1697" y1="72.2969" x2="418.1697" y2="92.2969" style="stroke:#181818;stroke-width:1;"/><polygon points="414.1697,82.2969,418.1697,92.2969,422.1697,82.2969,418.1697,86.2969" fill="#181818" style="stroke:#181818;stroke-width:1;stroke-linejoin:miter;stroke-miterlimit:10;"/><line x1="418.1697" y1="206.5313" x2="418.1697" y2="226.5313" style="stroke:#181818;stroke-width:1;"/><polygon points="414.1697,216.5313,418.1697,226.5313,422.1697,216.5313,418.1697,220.5313" fill="#181818" style="stroke:#181818;stroke-width:1;stroke-linejoin:miter;stroke-miterlimit:10;"/><line x1="418.1697" y1="260.5" x2="418.1697" y2="280.5" style="stroke:#181818;stroke-width:1;"/><polygon points="414.1697,270.5,418.1697,280.5,422.1697,270.5,418.1697,274.5" fill="#181818" style="stroke:#181818;stroke-width:1;stroke-linejoin:miter;stroke-miterlimit:10;"/><line x1="418.1697" y1="314.4688" x2="418.1697" y2="334.4688" style="stroke:#181818;stroke-width:1;"/><polygon points="414.1697,324.4688,418.1697,334.4688,422.1697,324.4688,418.1697,328.4688" fill="#181818" style="stroke:#181818;stroke-width:1;stroke-linejoin:miter;stroke-miterlimit:10;"/><line x1="418.1697" y1="368.4375" x2="418.1697" y2="388.4375" style="stroke:#181818;stroke-width:1;"/><polygon points="414.1697,378.4375,418.1697,388.4375,422.1697,378.4375,418.1697,382.4375" fill="#181818" style="stroke:#181818;stroke-width:1;stroke-linejoin:miter;stroke-miterlimit:10;"/><line x1="418.1697" y1="422.4063" x2="418.1697" y2="442.4063" style="stroke:#181818;stroke-width:1;"/><polygon points="414.1697,432.4063,418.1697,442.4063,422.1697,432.4063,418.1697,436.4063" fill="#181818" style="stroke:#181818;stroke-width:1;stroke-linejoin:miter;stroke-miterlimit:10;"/><line x1="418.1697" y1="126.2656" x2="418.1697" y2="172.5625" style="stroke:#181818;stroke-width:1;"/><polygon points="414.1697,162.5625,418.1697,172.5625,422.1697,162.5625,418.1697,166.5625" fill="#181818" style="stroke:#181818;stroke-width:1;stroke-linejoin:miter;stroke-miterlimit:10;"/><line x1="351.7617" y1="636.6406" x2="351.7617" y2="671.6406" style="stroke:#181818;stroke-width:1;"/><polygon points="347.7617,661.6406,351.7617,671.6406,355.7617,661.6406,351.7617,665.6406" fill="#181818" style="stroke:#181818;stroke-width:1;stroke-linejoin:miter;stroke-miterlimit:10;"/><line x1="163.53" y1="580.6719" x2="128.4893" y2="580.6719" style="stroke:#181818;stroke-width:1;"/><line x1="128.4893" y1="580.6719" x2="128.4893" y2="602.6719" style="stroke:#181818;stroke-width:1;"/><polygon points="124.4893,592.6719,128.4893,602.6719,132.4893,592.6719,128.4893,596.6719" fill="#181818" style="stroke:#181818;stroke-width:1;stroke-linejoin:miter;stroke-miterlimit:10;"/><line x1="316.7209" y1="580.6719" x2="351.7617" y2="580.6719" style="stroke:#181818;stroke-width:1;"/><line x1="351.7617" y1="580.6719" x2="351.7617" y2="602.6719" style="stroke:#181818;stroke-width:1;"/><polygon points="347.7617,592.6719,351.7617,602.6719,355.7617,592.6719,351.7617,596.6719" fill="#181818" style="stroke:#181818;stroke-width:1;stroke-linejoin:miter;stroke-miterlimit:10;"/><line x1="128.4893" y1="636.6406" x2="128.4893" y2="698.6406" style="stroke:#181818;stroke-width:1;"/><line x1="128.4893" y1="698.6406" x2="418.1697" y2="698.6406" style="stroke:#181818;stroke-width:1;"/><line x1="418.1697" y1="698.6406" x2="418.1697" y2="751.9375" style="stroke:#181818;stroke-width:1;"/><polygon points="414.1697,741.9375,418.1697,751.9375,422.1697,741.9375,418.1697,745.9375" fill="#181818" style="stroke:#181818;stroke-width:1;stroke-linejoin:miter;stroke-miterlimit:10;"/><line x1="596.2139" y1="602.6406" x2="596.2139" y2="637.6406" style="stroke:#181818;stroke-width:1;"/><polygon points="592.2139,627.6406,596.2139,637.6406,600.2139,627.6406,596.2139,631.6406" fill="#181818" style="stroke:#181818;stroke-width:1;stroke-linejoin:miter;stroke-miterlimit:10;"/><line x1="327.467" y1="546.6719" x2="240.1255" y2="546.6719" style="stroke:#181818;stroke-width:1;"/><line x1="240.1255" y1="546.6719" x2="240.1255" y2="568.6719" style="stroke:#181818;stroke-width:1;"/><polygon points="236.1255,558.6719,240.1255,568.6719,244.1255,558.6719,240.1255,562.6719" fill="#181818" style="stroke:#181818;stroke-width:1;stroke-linejoin:miter;stroke-miterlimit:10;"/><line x1="508.8723" y1="546.6719" x2="596.2139" y2="546.6719" style="stroke:#181818;stroke-width:1;"/><line x1="596.2139" y1="546.6719" x2="596.2139" y2="568.6719" style="stroke:#181818;stroke-width:1;"/><polygon points="592.2139,558.6719,596.2139,568.6719,600.2139,558.6719,596.2139,562.6719" fill="#181818" style="stroke:#181818;stroke-width:1;stroke-linejoin:miter;stroke-miterlimit:10;"/><line x1="418.1697" y1="476.375" x2="418.1697" y2="534.6719" style="stroke:#181818;stroke-width:1;"/><polygon points="414.1697,524.6719,418.1697,534.6719,422.1697,524.6719,418.1697,528.6719" fill="#181818" style="stroke:#181818;stroke-width:1;stroke-linejoin:miter;stroke-miterlimit:10;"/><line x1="318.22" y1="819.9063" x2="318.22" y2="839.9063" style="stroke:#181818;stroke-width:1;"/><polygon points="314.22,829.9063,318.22,839.9063,322.22,829.9063,318.22,833.9063" fill="#181818" style="stroke:#181818;stroke-width:1;stroke-linejoin:miter;stroke-miterlimit:10;"/><line x1="336.939" y1="763.9375" x2="318.22" y2="763.9375" style="stroke:#181818;stroke-width:1;"/><line x1="318.22" y1="763.9375" x2="318.22" y2="785.9375" style="stroke:#181818;stroke-width:1;"/><polygon points="314.22,775.9375,318.22,785.9375,322.22,775.9375,318.22,779.9375" fill="#181818" style="stroke:#181818;stroke-width:1;stroke-linejoin:miter;stroke-miterlimit:10;"/><line x1="499.4004" y1="763.9375" x2="518.1194" y2="763.9375" style="stroke:#181818;stroke-width:1;"/><line x1="518.1194" y1="763.9375" x2="518.1194" y2="785.9375" style="stroke:#181818;stroke-width:1;"/><polygon points="514.1194,775.9375,518.1194,785.9375,522.1194,775.9375,518.1194,779.9375" fill="#181818" style="stroke:#181818;stroke-width:1;stroke-linejoin:miter;stroke-miterlimit:10;"/><line x1="318.22" y1="873.875" x2="318.22" y2="891.875" style="stroke:#181818;stroke-width:1;"/><line x1="318.22" y1="891.875" x2="406.1697" y2="891.875" style="stroke:#181818;stroke-width:1;"/><polygon points="396.1697,887.875,406.1697,891.875,396.1697,895.875,400.1697,891.875" fill="#181818" style="stroke:#181818;stroke-width:1;stroke-linejoin:miter;stroke-miterlimit:10;"/><line x1="518.1194" y1="819.9063" x2="518.1194" y2="891.875" style="stroke:#181818;stroke-width:1;"/><line x1="518.1194" y1="891.875" x2="430.1697" y2="891.875" style="stroke:#181818;stroke-width:1;"/><polygon points="440.1697,887.875,430.1697,891.875,440.1697,895.875,436.1697,891.875" fill="#181818" style="stroke:#181818;stroke-width:1;stroke-linejoin:miter;stroke-miterlimit:10;"/><line x1="418.1697" y1="903.875" x2="418.1697" y2="923.875" style="stroke:#181818;stroke-width:1;"/><polygon points="414.1697,913.875,418.1697,923.875,422.1697,913.875,418.1697,917.875" fill="#181818" style="stroke:#181818;stroke-width:1;stroke-linejoin:miter;stroke-miterlimit:10;"/><line x1="526.2859" y1="1084.1094" x2="526.2859" y2="1104.1094" style="stroke:#181818;stroke-width:1;"/><polygon points="522.2859,1094.1094,526.2859,1104.1094,530.2859,1094.1094,526.2859,1098.1094" fill="#181818" style="stroke:#181818;stroke-width:1;stroke-linejoin:miter;stroke-miterlimit:10;"/><line x1="360.2979" y1="1028.1406" x2="310.0535" y2="1028.1406" style="stroke:#181818;stroke-width:1;"/><line x1="310.0535" y1="1028.1406" x2="310.0535" y2="1050.1406" style="stroke:#181818;stroke-width:1;"/><polygon points="306.0535,1040.1406,310.0535,1050.1406,314.0535,1040.1406,310.0535,1044.1406" fill="#181818" style="stroke:#181818;stroke-width:1;stroke-linejoin:miter;stroke-miterlimit:10;"/><line x1="476.0415" y1="1028.1406" x2="526.2859" y2="1028.1406" style="stroke:#181818;stroke-width:1;"/><line x1="526.2859" y1="1028.1406" x2="526.2859" y2="1050.1406" style="stroke:#181818;stroke-width:1;"/><polygon points="522.2859,1040.1406,526.2859,1050.1406,530.2859,1040.1406,526.2859,1044.1406" fill="#181818" style="stroke:#181818;stroke-width:1;stroke-linejoin:miter;stroke-miterlimit:10;"/><line x1="310.0535" y1="1084.1094" x2="310.0535" y2="1156.0781" style="stroke:#181818;stroke-width:1;"/><line x1="310.0535" y1="1156.0781" x2="406.1697" y2="1156.0781" style="stroke:#181818;stroke-width:1;"/><polygon points="396.1697,1152.0781,406.1697,1156.0781,396.1697,1160.0781,400.1697,1156.0781" fill="#181818" style="stroke:#181818;stroke-width:1;stroke-linejoin:miter;stroke-miterlimit:10;"/><line x1="526.2859" y1="1138.0781" x2="526.2859" y2="1156.0781" style="stroke:#181818;stroke-width:1;"/><line x1="526.2859" y1="1156.0781" x2="430.1697" y2="1156.0781" style="stroke:#181818;stroke-width:1;"/><polygon points="440.1697,1152.0781,430.1697,1156.0781,440.1697,1160.0781,436.1697,1156.0781" fill="#181818" style="stroke:#181818;stroke-width:1;stroke-linejoin:miter;stroke-miterlimit:10;"/><line x1="418.1697" y1="1168.0781" x2="418.1697" y2="1188.0781" style="stroke:#181818;stroke-width:1;"/><polygon points="414.1697,1178.0781,418.1697,1188.0781,422.1697,1178.0781,418.1697,1182.0781" fill="#181818" style="stroke:#181818;stroke-width:1;stroke-linejoin:miter;stroke-miterlimit:10;"/><line x1="312.9275" y1="1310.0156" x2="312.9275" y2="1330.0156" style="stroke:#181818;stroke-width:1;"/><polygon points="308.9275,1320.0156,312.9275,1330.0156,316.9275,1320.0156,312.9275,1324.0156" fill="#181818" style="stroke:#181818;stroke-width:1;stroke-linejoin:miter;stroke-miterlimit:10;"/><line x1="523.4119" y1="1310.0156" x2="523.4119" y2="1330.0156" style="stroke:#181818;stroke-width:1;"/><polygon points="519.4119,1320.0156,523.4119,1330.0156,527.4119,1320.0156,523.4119,1324.0156" fill="#181818" style="stroke:#181818;stroke-width:1;stroke-linejoin:miter;stroke-miterlimit:10;"/><line x1="344.2356" y1="1254.0469" x2="312.9275" y2="1254.0469" style="stroke:#181818;stroke-width:1;"/><line x1="312.9275" y1="1254.0469" x2="312.9275" y2="1276.0469" style="stroke:#181818;stroke-width:1;"/><polygon points="308.9275,1266.0469,312.9275,1276.0469,316.9275,1266.0469,312.9275,1270.0469" fill="#181818" style="stroke:#181818;stroke-width:1;stroke-linejoin:miter;stroke-miterlimit:10;"/><line x1="492.1038" y1="1254.0469" x2="523.4119" y2="1254.0469" style="stroke:#181818;stroke-width:1;"/><line x1="523.4119" y1="1254.0469" x2="523.4119" y2="1276.0469" style="stroke:#181818;stroke-width:1;"/><polygon points="519.4119,1266.0469,523.4119,1276.0469,527.4119,1266.0469,523.4119,1270.0469" fill="#181818" style="stroke:#181818;stroke-width:1;stroke-linejoin:miter;stroke-miterlimit:10;"/><line x1="312.9275" y1="1363.9844" x2="312.9275" y2="1368.9844" style="stroke:#181818;stroke-width:1;"/><line x1="312.9275" y1="1368.9844" x2="418.1697" y2="1368.9844" style="stroke:#181818;stroke-width:1;"/><line x1="418.1697" y1="1368.9844" x2="418.1697" y2="1422.2813" style="stroke:#181818;stroke-width:1;"/><polygon points="414.1697,1412.2813,418.1697,1422.2813,422.1697,1412.2813,418.1697,1416.2813" fill="#181818" style="stroke:#181818;stroke-width:1;stroke-linejoin:miter;stroke-miterlimit:10;"/><line x1="418.1697" y1="1222.0469" x2="418.1697" y2="1242.0469" style="stroke:#181818;stroke-width:1;"/><polygon points="414.1697,1232.0469,418.1697,1242.0469,422.1697,1232.0469,418.1697,1236.0469" fill="#181818" style="stroke:#181818;stroke-width:1;stroke-linejoin:miter;stroke-miterlimit:10;"/><line x1="418.1697" y1="957.8438" x2="418.1697" y2="1016.1406" style="stroke:#181818;stroke-width:1;"/><polygon points="414.1697,1006.1406,418.1697,1016.1406,422.1697,1006.1406,418.1697,1010.1406" fill="#181818" style="stroke:#181818;stroke-width:1;stroke-linejoin:miter;stroke-miterlimit:10;"/><line x1="418.1697" y1="1456.25" x2="418.1697" y2="1476.25" style="stroke:#181818;stroke-width:1;"/><polygon points="414.1697,1466.25,418.1697,1476.25,422.1697,1466.25,418.1697,1470.25" fill="#181818" style="stroke:#181818;stroke-width:1;stroke-linejoin:miter;stroke-miterlimit:10;"/><line x1="418.1697" y1="1510.2188" x2="418.1697" y2="1530.2188" style="stroke:#181818;stroke-width:1;"/><polygon points="414.1697,1520.2188,418.1697,1530.2188,422.1697,1520.2188,418.1697,1524.2188" fill="#181818" style="stroke:#181818;stroke-width:1;stroke-linejoin:miter;stroke-miterlimit:10;"/><line x1="418.1697" y1="1564.1875" x2="418.1697" y2="1584.1875" style="stroke:#181818;stroke-width:1;"/><polygon points="414.1697,1574.1875,418.1697,1584.1875,422.1697,1574.1875,418.1697,1578.1875" fill="#181818" style="stroke:#181818;stroke-width:1;stroke-linejoin:miter;stroke-miterlimit:10;"/><line x1="360.2979" y1="1650.1563" x2="324.9963" y2="1650.1563" style="stroke:#181818;stroke-width:1;"/><line x1="324.9963" y1="1650.1563" x2="324.9963" y2="1672.1563" style="stroke:#181818;stroke-width:1;"/><polygon points="320.9963,1662.1563,324.9963,1672.1563,328.9963,1662.1563,324.9963,1666.1563" fill="#181818" style="stroke:#181818;stroke-width:1;stroke-linejoin:miter;stroke-miterlimit:10;"/><line x1="476.0415" y1="1650.1563" x2="511.343" y2="1650.1563" style="stroke:#181818;stroke-width:1;"/><line x1="511.343" y1="1650.1563" x2="511.343" y2="1672.1563" style="stroke:#181818;stroke-width:1;"/><polygon points="507.343,1662.1563,511.343,1672.1563,515.343,1662.1563,511.343,1666.1563" fill="#181818" style="stroke:#181818;stroke-width:1;stroke-linejoin:miter;stroke-miterlimit:10;"/><line x1="324.9963" y1="1706.125" x2="324.9963" y2="1724.125" style="stroke:#181818;stroke-width:1;"/><line x1="324.9963" y1="1724.125" x2="406.1697" y2="1724.125" style="stroke:#181818;stroke-width:1;"/><polygon points="396.1697,1720.125,406.1697,1724.125,396.1697,1728.125,400.1697,1724.125" fill="#181818" style="stroke:#181818;stroke-width:1;stroke-linejoin:miter;stroke-miterlimit:10;"/><line x1="511.343" y1="1706.125" x2="511.343" y2="1724.125" style="stroke:#181818;stroke-width:1;"/><line x1="511.343" y1="1724.125" x2="430.1697" y2="1724.125" style="stroke:#181818;stroke-width:1;"/><polygon points="440.1697,1720.125,430.1697,1724.125,440.1697,1728.125,436.1697,1724.125" fill="#181818" style="stroke:#181818;stroke-width:1;stroke-linejoin:miter;stroke-miterlimit:10;"/><line x1="418.1697" y1="1618.1563" x2="418.1697" y2="1638.1563" style="stroke:#181818;stroke-width:1;"/><polygon points="414.1697,1628.1563,418.1697,1638.1563,422.1697,1628.1563,418.1697,1632.1563" fill="#181818" style="stroke:#181818;stroke-width:1;stroke-linejoin:miter;stroke-miterlimit:10;"/><line x1="418.1697" y1="1736.125" x2="418.1697" y2="1756.125" style="stroke:#181818;stroke-width:1;"/><polygon points="414.1697,1746.125,418.1697,1756.125,422.1697,1746.125,418.1697,1750.125" fill="#181818" style="stroke:#181818;stroke-width:1;stroke-linejoin:miter;stroke-miterlimit:10;"/><line x1="418.1697" y1="1790.0938" x2="418.1697" y2="1822.0938" style="stroke:#181818;stroke-width:1;"/><polygon points="414.1697,1812.0938,418.1697,1822.0938,422.1697,1812.0938,418.1697,1816.0938" fill="#181818" style="stroke:#181818;stroke-width:1;stroke-linejoin:miter;stroke-miterlimit:10;"/><line x1="418.1697" y1="1856.0625" x2="418.1697" y2="1876.0625" style="stroke:#181818;stroke-width:1;"/><polygon points="414.1697,1866.0625,418.1697,1876.0625,422.1697,1866.0625,418.1697,1870.0625" fill="#181818" style="stroke:#181818;stroke-width:1;stroke-linejoin:miter;stroke-miterlimit:10;"/><?plantuml-src ZLJBZjim3BpxAuYSia3x0ycXIBFRnw6BeAyx8pCEMrbqPJb8j-Y_bteuJffiqPjX3OSpv4Y1WoMuPsmyjWWrmIhmWMkigOUNyCOEHu6tvD52ZV0Es-tWcu4yOrNr0NsegiNQChb0iCCd4EYevbg0MWXq3BAigavX75WSp3w82zZecI8s2JY3NnN0uhqI-CwJKkQwYCXKotHUQmlUiOddtCaBm9gDSYBtGE2f5IFK9-nQrNcmwCoUO8izmO5HrMszbYV4ghE9wOm3fLGaGDBfGVljKVKOf_2ew0oIknItHjgn8UMgPVNxmlbNj3fLWyKmxs3-MNr0pNqdZWzauyYe3_9Ze5Tt4FRaODvpUwVeZ5SAyTDSu10fvHghul9i0Jil1zGFXnaT1ImJYApEPUvGJZKVwHjnc3pD3waVkzpdRbc0Ah7B5AxcNNL5TKqK5wOyazN2LPWop-MuxgatkeEpQOqfOxSJtye0PkYalNP_4IKZDJSfImcTsou-aQMqTvKeLZkQbFowz5pUyFIbL_08W0vhdmSvpc2nHci66zCfGIzB3CJ4T-bjlIVpNOPmvWrTl60QLEN3awVNodbIy8Xndpct0Oz9iGx4KuEJu7koEb__izIidiUdFJNS1w_dsfKy6VcRCvcBxZPU3FLn1Xqss59oLSHlnZ-dkDrOobhSZdrx2aMHi0g3XkifIj3N94ORFSBieGLTe7xBxDOofeugUkXnfFj7dZQPJc_dG_PNtfr76LyL8q_izBOJ6EHZVYTorPHalKO5bf-Hs-frM36v-PNOOpHjIdXTnB0ZUvhU_wn-ZBvcchM1acpJyRDxBnvhlRwM3WZdJ-cqrEU6due7cgNSZa-99jdO8N5KSSv_0000?></g></svg>