<svg xmlns="http://www.w3.org/2000/svg" xmlns:xlink="http://www.w3.org/1999/xlink" version="1.1" data-diagram-type="STATE" style="width:395px;height:668px;background:#FFFFFF;" width="395px" height="668px" viewBox="0 0 395 668" zoomAndPan="magnify" preserveAspectRatio="none" contentStyleType="text/css"><?plantuml 1.2026.7beta3?><defs/><g><g class="title" data-source-line="1"><text x="10" y="22.9951" fill="#000000" font-size="14" lengthAdjust="spacing" textLength="368.8672" font-weight="700" font-family="sans-serif">Diagrama de Estados - Ciclo de Vida do Pedido</text></g><g class="entity" data-qualified-name="Aguardando" id="ent0001" data-source-line="5"><rect x="110.2261" y="140.2969" width="196.6816" height="50" fill="#F1F1F1" style="stroke:#181818;stroke-width:0.5;" rx="12.5" ry="12.5"/><line x1="110.2261" y1="166.5938" x2="306.9078" y2="166.5938" style="stroke:#181818;stroke-width:0.5;"/><text x="120.2261" y="158.292" fill="#000000" font-size="14" lengthAdjust="spacing" textLength="176.6816" font-family="sans-serif">Aguardando confirmacao</text></g><g class="entity" data-qualified-name="EmPreparo" id="ent0002" data-source-line="6"><rect x="97.5861" y="267.2969" width="101.9766" height="50" fill="#F1F1F1" style="stroke:#181818;stroke-width:0.5;" rx="12.5" ry="12.5"/><line x1="97.5861" y1="293.5938" x2="199.5627" y2="293.5938" style="stroke:#181818;stroke-width:0.5;"/><text x="107.5861" y="285.292" fill="#000000" font-size="14" lengthAdjust="spacing" textLength="81.9766" font-family="sans-serif">Em preparo</text></g><g class="entity" data-qualified-name="Pronto" id="ent0003" data-source-line="7"><rect x="38.7261" y="394.2969" width="65.6914" height="50" fill="#F1F1F1" style="stroke:#181818;stroke-width:0.5;" rx="12.5" ry="12.5"/><line x1="38.7261" y1="420.5938" x2="104.4175" y2="420.5938" style="stroke:#181818;stroke-width:0.5;"/><text x="48.7261" y="412.292" fill="#000000" font-size="14" lengthAdjust="spacing" textLength="45.6914" font-family="sans-serif">Pronto</text></g><g class="entity" data-qualified-name="Entregue" id="ent0004" data-source-line="8"><rect x="44.5961" y="521.2969" width="83.9502" height="50" fill="#F1F1F1" style="stroke:#181818;stroke-width:0.5;" rx="12.5" ry="12.5"/><line x1="44.5961" y1="547.5938" x2="128.5463" y2="547.5938" style="stroke:#181818;stroke-width:0.5;"/><text x="54.5961" y="539.292" fill="#000000" font-size="14" lengthAdjust="spacing" textLength="63.9502" font-family="sans-serif">Entregue</text></g><g class="entity" data-qualified-name="Cancelado" id="ent0005" data-source-line="9"><rect x="139.8461" y="394.2969" width="93.459" height="50" fill="#F1F1F1" style="stroke:#181818;stroke-width:0.5;" rx="12.5" ry="12.5"/><line x1="139.8461" y1="420.5938" x2="233.3051" y2="420.5938" style="stroke:#181818;stroke-width:0.5;"/><text x="149.8461" y="412.292" fill="#000000" font-size="14" lengthAdjust="spacing" textLength="73.459" font-family="sans-serif">Cancelado</text></g><g class="start_entity" data-qualified-name=".start." id="ent0006" data-source-line="3"><ellipse cx="208.5761" cy="53.2969" rx="10" ry="10" fill="#222222" style="stroke:#222222;stroke-width:1;"/></g><g class="end_entity" data-qualified-name=".end." id="ent0013" data-source-line="19"><ellipse cx="135.5761" cy="643.2969" rx="11" ry="11" fill="none" style="stroke:#222222;stroke-width:1;"/><ellipse cx="135.5761" cy="643.2969" rx="6" ry="6" fill="#222222" style="stroke:#222222;stroke-width:1;"/></g><!--link *start* to Aguardando--><g class="link" data-entity-1="ent0006" data-entity-2="ent0001" id="lnk7" data-source-line="3" data-link-type="dependency"><path d="M208.5761,63.6769 C208.5761,80.4069 208.5761,110.8869 208.5761,134.9269" style="stroke:#181818;stroke-width:1;" fill="none" id="*start*-to-Aguardando"/><polygon points="208.5761,139.9269,212.5761,130.9269,208.5761,134.9269,204.5761,130.9269,208.5761,139.9269" fill="#181818" style="stroke:#181818;stroke-width:1;stroke-linejoin:miter;stroke-miterlimit:10;"/><text x="209.5761" y="106.3638" fill="#000000" font-size="13" lengthAdjust="spacing" textLength="116.4541" font-family="sans-serif">new CicloPedido()</text></g><!--link Aguardando to EmPreparo--><g class="link" data-entity-1="ent0001" data-entity-2="ent0002" id="lnk8" data-source-line="11" data-link-type="dependency"><path d="M188.2561,190.7169 C181.5961,199.6169 174.6161,210.0169 169.5761,220.2969 C162.3161,235.0669 158.2511,247.9593 154.8211,262.0193" style="stroke:#181818;stroke-width:1;" fill="none" id="Aguardando-to-EmPreparo"/><polygon points="153.6361,266.8769,159.6552,259.0813,154.8211,262.0193,151.8831,257.1853,153.6361,266.8769" fill="#181818" style="stroke:#181818;stroke-width:1;stroke-linejoin:miter;stroke-miterlimit:10;"/><text x="170.5761" y="233.3638" fill="#000000" font-size="13" lengthAdjust="spacing" textLength="72.9917" font-family="sans-serif">confirmar()</text></g><!--link Aguardando to Cancelado--><g class="link" data-entity-1="ent0001" data-entity-2="ent0005" id="lnk9" data-source-line="12" data-link-type="dependency"><path d="M231.0261,190.5569 C237.6861,199.2869 244.1161,209.6269 247.5761,220.2969 C258.1561,253.0369 321.8761,194.6469 245.5761,364.2969 C240.4461,375.6969 235.3729,382.4348 226.0929,390.6848" style="stroke:#181818;stroke-width:1;" fill="none" id="Aguardando-to-Cancelado"/><polygon points="222.3561,394.0069,231.7401,391.0166,226.0929,390.6848,226.4248,385.0377,222.3561,394.0069" fill="#181818" style="stroke:#181818;stroke-width:1;stroke-linejoin:miter;stroke-miterlimit:10;"/><text x="282.5761" y="296.8638" fill="#000000" font-size="13" lengthAdjust="spacing" textLength="65.5649" font-family="sans-serif">cancelar()</text></g><!--link EmPreparo to Pronto--><g class="link" data-entity-1="ent0002" data-entity-2="ent0003" id="lnk10" data-source-line="14" data-link-type="dependency"><path d="M115.3361,317.6169 C105.7961,326.0569 96.1961,336.2169 89.5761,347.2969 C81.0861,361.4869 77.3937,374.6442 75.0137,389.0042" style="stroke:#181818;stroke-width:1;" fill="none" id="EmPreparo-to-Pronto"/><polygon points="74.1961,393.9369,79.6139,385.712,75.0137,389.0042,71.7215,384.404,74.1961,393.9369" fill="#181818" style="stroke:#181818;stroke-width:1;stroke-linejoin:miter;stroke-miterlimit:10;"/><text x="90.5761" y="360.3638" fill="#000000" font-size="13" lengthAdjust="spacing" textLength="66.6123" font-family="sans-serif">preparar()</text></g><!--link EmPreparo to Cancelado--><g class="link" data-entity-1="ent0002" data-entity-2="ent0005" id="lnk11" data-source-line="15" data-link-type="dependency"><path d="M155.9861,317.6969 C162.6861,339.7169 171.0314,367.1732 177.7214,389.1732" style="stroke:#181818;stroke-width:1;" fill="none" id="EmPreparo-to-Cancelado"/><polygon points="179.1761,393.9569,180.3847,384.1824,177.7214,389.1732,172.7307,386.5099,179.1761,393.9569" fill="#181818" style="stroke:#181818;stroke-width:1;stroke-linejoin:miter;stroke-miterlimit:10;"/><text x="171.5761" y="360.3638" fill="#000000" font-size="13" lengthAdjust="spacing" textLength="65.5649" font-family="sans-serif">cancelar()</text></g><!--link Pronto to Entregue--><g class="link" data-entity-1="ent0003" data-entity-2="ent0004" id="lnk12" data-source-line="17" data-link-type="dependency"><path d="M74.4961,444.6969 C77.1461,466.7169 80.4082,493.9928 83.0582,515.9928" style="stroke:#181818;stroke-width:1;" fill="none" id="Pronto-to-Entregue"/><polygon points="83.6561,520.9569,86.5511,511.5431,83.0582,515.9928,78.6085,512.4998,83.6561,520.9569" fill="#181818" style="stroke:#181818;stroke-width:1;stroke-linejoin:miter;stroke-miterlimit:10;"/><text x="81.5761" y="487.3638" fill="#000000" font-size="13" lengthAdjust="spacing" textLength="66.3838" font-family="sans-serif">entregar()</text></g><!--link Entregue to *end*--><g class="link" data-entity-1="ent0004" data-entity-2="ent0013" id="lnk14" data-source-line="19" data-link-type="dependency"><path d="M99.1861,571.7569 C109.5161,591.7769 121.2546,614.5329 128.5046,628.5929" style="stroke:#181818;stroke-width:1;" fill="none" id="Entregue-to-*end*"/><polygon points="130.7961,633.0369,130.2266,623.2045,128.5046,628.5929,123.1162,626.8709,130.7961,633.0369" fill="#181818" style="stroke:#181818;stroke-width:1;stroke-linejoin:miter;stroke-miterlimit:10;"/></g><!--link Cancelado to *end*--><g class="link" data-entity-1="ent0005" data-entity-2="ent0013" id="lnk15" data-source-line="20" data-link-type="dependency"><path d="M181.0161,444.4769 C169.9161,492.7969 146.5249,594.6137 138.9649,627.5437" style="stroke:#181818;stroke-width:1;" fill="none" id="Cancelado-to-*end*"/><polygon points="137.8461,632.4169,143.7585,624.5401,138.9649,627.5437,135.9614,622.75,137.8461,632.4169" fill="#181818" style="stroke:#181818;stroke-width:1;stroke-linejoin:miter;stroke-miterlimit:10;"/></g><?plantuml-src TP712eCm38RlVOhWQHlu0ZiCXlFkQPUnGx2P5BILMjdhBpMjki5kIVxlJ_FJO49FS3FOUHmGD44z1THkWX8gq_OkZkv6i-IW8MsqK-fnUa9PNk3QpUWrMfREOEaj3g4EHwLuKo0eTbZhxClu0Ljq1U2qsv3XUe3HquXUW7fefCjwuvqDeacv6ctmrCqajjHaiKBRKi-v5dNjbDhT5XEjpt6WVAldA3_OkY1YKaTARVP8oNsCIA05-IR-xKdEvQAKX0bQolHI7aU6_qDjgzBa0m00?></g></svg>